<svg id="圖層_1" data-name="圖層 1" xmlns="http://www.w3.org/2000/svg" viewBox="0 0 34 30"><defs><style>.cls-1{fill:#555;}</style></defs><title>icon_home</title><path class="cls-1" d="M33.64,11.85,17.52.17a.87.87,0,0,0-1,0L.36,11.85a.87.87,0,0,0-.19,1.22.89.89,0,0,0,1.24.19L17,2l15.59,11.3a.93.93,0,0,0,.53.17.87.87,0,0,0,.52-1.58Z"/><path class="cls-1" d="M29.37,13.46a.88.88,0,0,0-.89.87V28.25H21.42v-7.6a4.42,4.42,0,0,0-8.84,0v7.6H5.52V14.33a.89.89,0,0,0-1.77,0v14.8a.87.87,0,0,0,.88.87h8.84a.89.89,0,0,0,.88-.81V20.65a2.65,2.65,0,0,1,5.3,0v8.54a.89.89,0,0,0,.88.81h8.84a.87.87,0,0,0,.88-.87V14.33A.87.87,0,0,0,29.37,13.46Z"/></svg>